<svg xmlns="http://www.w3.org/2000/svg" id="09-2-3-3-figure" width="310" height="250" viewBox="0 0 310 250">
  <defs>
    <clipPath id="09-2-3-3-__clipPath-0">
      <rect x="5.0" y="5.0" width="300.0" height="240.0"/>
    </clipPath>
    <marker id="09-2-3-3-arrow-head-end-2_None_24_60-black" markerWidth="9.0" markerHeight="8.0" markerUnits="userSpaceOnUse" orient="auto" refX="6.5" refY="4.0">
      <path d="M 9.0 4.0L 0.0 8.0L 1.7 5.0L 1.7 3.0L 0.0 0.0Z" fill="black" stroke="none"/>
    </marker>
    <marker id="09-2-3-3-arrow-head-end-2_None_24_60-black-outline" markerWidth="13.0" markerHeight="12.0" markerUnits="userSpaceOnUse" orient="auto" refX="8.5" refY="6.0">
      <path d="M 11.8 7.8 L 2.8 11.8 A 2 2 0 0 1 0.0 10.0 L 0.0 2.0 A 2 2 0 0 1 2.8 0.2 L 11.8 4.2 A 2 2 0 0 1 11.8 7.8 Z" fill="white" stroke="none"/>
    </marker>
    <marker id="09-2-3-3-arrow-head-start-2_None_24_60-black" markerWidth="9.0" markerHeight="8.0" markerUnits="userSpaceOnUse" orient="auto" refX="2.5" refY="4.0">
      <g transform="rotate(180, 4.5, 4.0)">
        <path d="M 9.0 4.0L 0.0 8.0L 1.7 5.0L 1.7 3.0L 0.0 0.0Z" fill="black" stroke="none"/>
      </g>
    </marker>
    <marker id="09-2-3-3-arrow-head-start-2_None_24_60-black-outline" markerWidth="13.0" markerHeight="12.0" markerUnits="userSpaceOnUse" orient="auto" refX="4.5" refY="6.0">
      <g transform="rotate(180, 6.5, 6.0)">
        <path d="M 11.8 7.8 L 2.8 11.8 A 2 2 0 0 1 0.0 10.0 L 0.0 2.0 A 2 2 0 0 1 2.8 0.2 L 11.8 4.2 A 2 2 0 0 1 11.8 7.8 Z" fill="white" stroke="none"/>
      </g>
    </marker>
  </defs>
  <path id="09-2-3-3-plane" d="M 207.9 173.1 L 15.4 173.1 L 102.1 76.9 L 294.6 76.9 Z" stroke="none" stroke-width="2" fill="#cccccc" clip-path="url(#09-2-3-3-__clipPath-0)"/>
  <g id="09-2-3-3-grid">
    <line id="09-2-3-3-__line-0-i_-2" x1="121.3" y1="76.9" x2="34.7" y2="173.1" stroke="#808080" stroke-width="1" fill="none" clip-path="url(#09-2-3-3-__clipPath-0)"/>
    <line id="09-2-3-3-__line-1-i_-2" x1="93.4" y1="86.5" x2="285.9" y2="86.5" stroke="#808080" stroke-width="1" fill="none" clip-path="url(#09-2-3-3-__clipPath-0)"/>
    <line id="09-2-3-3-__line-2-i_-1" x1="159.8" y1="76.9" x2="73.2" y2="173.1" stroke="#808080" stroke-width="1" fill="none" clip-path="url(#09-2-3-3-__clipPath-0)"/>
    <line id="09-2-3-3-__line-3-i_-1" x1="76.1" y1="105.8" x2="268.6" y2="105.8" stroke="#808080" stroke-width="1" fill="none" clip-path="url(#09-2-3-3-__clipPath-0)"/>
    <line id="09-2-3-3-__line-4-i_0" x1="198.3" y1="76.9" x2="111.7" y2="173.1" stroke="#808080" stroke-width="1" fill="none" clip-path="url(#09-2-3-3-__clipPath-0)"/>
    <line id="09-2-3-3-__line-5-i_0" x1="58.8" y1="125.0" x2="251.2" y2="125.0" stroke="#808080" stroke-width="1" fill="none" clip-path="url(#09-2-3-3-__clipPath-0)"/>
    <line id="09-2-3-3-__line-6-i_1" x1="236.8" y1="76.9" x2="150.2" y2="173.1" stroke="#808080" stroke-width="1" fill="none" clip-path="url(#09-2-3-3-__clipPath-0)"/>
    <line id="09-2-3-3-__line-7-i_1" x1="41.4" y1="144.2" x2="233.9" y2="144.2" stroke="#808080" stroke-width="1" fill="none" clip-path="url(#09-2-3-3-__clipPath-0)"/>
    <line id="09-2-3-3-__line-8-i_2" x1="275.3" y1="76.9" x2="188.7" y2="173.1" stroke="#808080" stroke-width="1" fill="none" clip-path="url(#09-2-3-3-__clipPath-0)"/>
    <line id="09-2-3-3-__line-9-i_2" x1="24.1" y1="163.5" x2="216.6" y2="163.5" stroke="#808080" stroke-width="1" fill="none" clip-path="url(#09-2-3-3-__clipPath-0)"/>
  </g>
  <path id="09-2-3-3-axes" d="M 155.0 125.0 L 155.0 28.8 M 155.0 125.0 L 111.7 173.1 M 155.0 125.0 L 251.2 125.0" stroke="black" stroke-width="1" fill="none" clip-path="url(#09-2-3-3-__clipPath-0)"/>
  <g id="09-2-3-3-v1">
    <g id="09-2-3-3-v1" transform="translate(140.7,146.9) translate(0.0,-0.0)">
      <g id="09-2-3-3-__g-0">
        <svg xmlns:xlink="http://www.w3.org/1999/xlink" style="vertical-align: -2.712px" width="17.440px" height="10.912px" role="img" focusable="false" viewBox="0 -453 963.6 603" x="0.0" y="0.0">
          <defs>
            <path id="09-2-3-3-MJX-2-NCM-B-1D41E" d="M494 117C494 135 475 135 470 135C453 135 451 130 445 114C424 66 367 34 302 34C161 34 160 167 160 218L462 218C484 218 494 218 494 245C494 276 488 349 438 399C401 435 348 453 279 453C119 453 32 350 32 225C32 91 132-6 293-6C451-6 494 100 494 117M399 251L160 251C162 290 163 332 184 365C210 405 250 417 279 417C396 417 398 286 399 251Z"/>
            <path id="09-2-3-3-MJX-2-NCM-N-31" d="M269 666C228 624 168 603 89 603L89 564C141 564 184 572 217 588L217 82C217 64 213 52 204 47C195 42 170 39 130 39L95 39L95 0C120 2 174 3 257 3C340 3 394 2 419 0L419 39L384 39C343 39 318 42 310 47C302 52 297 64 297 82L297 636C297 660 295 666 269 666Z"/>
          </defs>
          <g stroke="currentColor" fill="currentColor" stroke-width="0" transform="scale(1,-1)">
            <g data-mml-node="math">
              <g data-mml-node="msub" data-semantic-type="subscript" data-semantic-role="latinletter" data-semantic-annotation="depth:1" data-semantic-id="2" data-semantic-children="0,1" data-semantic-attributes="latex:                                         \evec_1                                     " data-semantic-speech="bold e 1">
                <g data-mml-node="TeXAtom" data-mjx-texclass="ORD">
                  <g data-mml-node="TeXAtom" data-mjx-texclass="ORD">
                    <g data-mml-node="mi" data-semantic-type="identifier" data-semantic-role="latinletter" data-semantic-font="bold" data-semantic-annotation="clearspeak:simple;nemeth:number;depth:2" data-semantic-id="0" data-semantic-parent="2" data-semantic-attributes="latex:{\mathbf e};texclass:ORD" data-semantic-speech="bold e" data-semantic-prefix="Base">
                      <use data-c="1D41E" xlink:href="#09-2-3-3-MJX-2-NCM-B-1D41E"/>
                    </g>
                  </g>
                </g>
                <g data-mml-node="mn" transform="translate(560,-150) scale(0.707)" data-semantic-type="number" data-semantic-role="integer" data-semantic-font="normal" data-semantic-annotation="clearspeak:simple;depth:2" data-semantic-id="1" data-semantic-parent="2" data-semantic-attributes="latex:1" data-semantic-speech="1" data-semantic-prefix="Subscript">
                  <use data-c="31" xlink:href="#09-2-3-3-MJX-2-NCM-N-31"/>
                </g>
              </g>
            </g>
          </g>
        </svg>
      </g>
    </g>
    <path stroke="black" stroke-width="2" fill="none" marker-end="url(#09-2-3-3-arrow-head-end-2_None_24_60-black)" d="M 155.0 125.0 L 139.3 142.4"/>
  </g>
  <g id="09-2-3-3-v2">
    <g id="09-2-3-3-v2" transform="translate(199.5,119.0) translate(0.0,-10.9)">
      <g id="09-2-3-3-__g-1">
        <svg xmlns:xlink="http://www.w3.org/1999/xlink" style="vertical-align: -2.712px" width="17.440px" height="10.912px" role="img" focusable="false" viewBox="0 -453 963.6 603" x="0.0" y="0.0">
          <defs>
            <path id="09-2-3-3-MJX-3-NCM-B-1D41E" d="M494 117C494 135 475 135 470 135C453 135 451 130 445 114C424 66 367 34 302 34C161 34 160 167 160 218L462 218C484 218 494 218 494 245C494 276 488 349 438 399C401 435 348 453 279 453C119 453 32 350 32 225C32 91 132-6 293-6C451-6 494 100 494 117M399 251L160 251C162 290 163 332 184 365C210 405 250 417 279 417C396 417 398 286 399 251Z"/>
            <path id="09-2-3-3-MJX-3-NCM-N-32" d="M237 666C186 666 143 648 106 612C69 576 50 534 50 483C50 449 75 424 106 424C136 424 161 450 161 480C161 513 137 536 105 536C102 536 100 536 98 535C117 584 161 627 224 627C306 627 352 556 352 470C352 403 318 331 250 255L62 43C49 28 50 29 50 0L421 0L450 180L417 180C409 129 402 100 396 91C391 86 361 84 306 84L139 84L236 179C304 243 390 312 419 365C439 400 449 435 449 470C449 588 357 666 237 666Z"/>
          </defs>
          <g stroke="currentColor" fill="currentColor" stroke-width="0" transform="scale(1,-1)">
            <g data-mml-node="math">
              <g data-mml-node="msub" data-semantic-type="subscript" data-semantic-role="latinletter" data-semantic-annotation="depth:1" data-semantic-id="2" data-semantic-children="0,1" data-semantic-attributes="latex:                                         \evec_2                                     " data-semantic-speech="bold e 2">
                <g data-mml-node="TeXAtom" data-mjx-texclass="ORD">
                  <g data-mml-node="TeXAtom" data-mjx-texclass="ORD">
                    <g data-mml-node="mi" data-semantic-type="identifier" data-semantic-role="latinletter" data-semantic-font="bold" data-semantic-annotation="clearspeak:simple;nemeth:number;depth:2" data-semantic-id="0" data-semantic-parent="2" data-semantic-attributes="latex:{\mathbf e};texclass:ORD" data-semantic-speech="bold e" data-semantic-prefix="Base">
                      <use data-c="1D41E" xlink:href="#09-2-3-3-MJX-3-NCM-B-1D41E"/>
                    </g>
                  </g>
                </g>
                <g data-mml-node="mn" transform="translate(560,-150) scale(0.707)" data-semantic-type="number" data-semantic-role="integer" data-semantic-font="normal" data-semantic-annotation="clearspeak:simple;depth:2" data-semantic-id="1" data-semantic-parent="2" data-semantic-attributes="latex:2" data-semantic-speech="2" data-semantic-prefix="Subscript">
                  <use data-c="32" xlink:href="#09-2-3-3-MJX-3-NCM-N-32"/>
                </g>
              </g>
            </g>
          </g>
        </svg>
      </g>
    </g>
    <path stroke="black" stroke-width="2" fill="none" marker-end="url(#09-2-3-3-arrow-head-end-2_None_24_60-black)" d="M 155.0 125.0 L 191.1 125.0"/>
  </g>
  <g id="09-2-3-3-x-label" transform="translate(93.8,184.5) translate(-10.4,-8.2)">
    <g id="09-2-3-3-__g-2">
      <svg xmlns:xlink="http://www.w3.org/1999/xlink" style="vertical-align: -0.200px" width="10.352px" height="8.200px" role="img" focusable="false" viewBox="0 -442 572 453" x="0.0" y="0.0">
        <defs>
          <path id="09-2-3-3-MJX-4-NCM-I-1D465" d="M527 373C527 419 482 442 432 442C389 442 355 419 329 373C308 419 273 442 222 442C173 442 133 419 101 374C74 335 60 306 60 287C60 278 65 273 75 273C84 273 90 278 92 287C111 345 153 413 220 413C253 413 269 392 269 351C269 330 251 252 216 118C199 51 169 18 126 18C112 18 99 21 88 26C114 36 127 54 127 80C127 106 114 119 87 119C54 119 29 91 29 58C29 12 76-11 125-11C167-11 201 12 228 58C247 12 283-11 335-11C383-11 423 12 455 57C482 96 496 125 496 144C496 153 491 158 481 158C472 158 467 153 464 144C447 87 402 18 337 18C304 18 287 38 287 79C287 92 292 120 303 165L337 300C356 375 387 413 431 413C445 413 458 410 469 405C442 396 429 378 429 351C429 325 443 312 470 312C502 312 527 341 527 373Z"/>
        </defs>
        <g stroke="currentColor" fill="currentColor" stroke-width="0" transform="scale(1,-1)">
          <g data-mml-node="math">
            <g data-mml-node="mi" data-semantic-type="identifier" data-semantic-role="latinletter" data-semantic-font="italic" data-semantic-annotation="clearspeak:simple;nemeth:number;depth:1" data-semantic-id="0" data-semantic-attributes="latex:                                         x                                     " data-semantic-speech="x">
              <use data-c="1D465" xlink:href="#09-2-3-3-MJX-4-NCM-I-1D465"/>
            </g>
          </g>
        </g>
      </svg>
    </g>
  </g>
  <g id="09-2-3-3-y-label" transform="translate(278.1,121.0) translate(-8.9,-11.7)">
    <g id="09-2-3-3-__g-3">
      <svg xmlns:xlink="http://www.w3.org/1999/xlink" style="vertical-align: -3.712px" width="8.872px" height="11.712px" role="img" focusable="false" viewBox="0 -442 490 647" x="0.0" y="0.0">
        <defs>
          <path id="09-2-3-3-MJX-5-NCM-I-1D466" d="M163 442C118 442 83 417 58 367C39 328 29 301 29 286C29 277 34 272 45 272C59 272 60 278 64 293C87 372 119 412 160 412C173 412 180 403 180 385C180 369 175 346 164 317C126 214 107 145 107 108C107 32 154-13 231-13C264-13 295-1 323 23C288-109 233-175 158-175C124-175 101-164 89-142C129-140 149-121 149-85C149-60 136-47 109-47C72-47 50-78 50-115C50-170 100-205 158-205C273-205 367-99 392-1L486 377C489 388 490 396 490 401C490 421 479 431 458 431C442 431 429 423 420 408C414 387 409 369 406 354L342 97C332 61 279 16 234 16C196 16 177 41 177 92C177 134 194 198 227 284C240 319 247 343 247 357C247 406 212 442 163 442Z"/>
        </defs>
        <g stroke="currentColor" fill="currentColor" stroke-width="0" transform="scale(1,-1)">
          <g data-mml-node="math">
            <g data-mml-node="mi" data-semantic-type="identifier" data-semantic-role="latinletter" data-semantic-font="italic" data-semantic-annotation="clearspeak:simple;nemeth:number;depth:1" data-semantic-id="0" data-semantic-attributes="latex:                                         y                                     " data-semantic-speech="y">
              <use data-c="1D466" xlink:href="#09-2-3-3-MJX-5-NCM-I-1D466"/>
            </g>
          </g>
        </g>
      </svg>
    </g>
  </g>
  <g id="09-2-3-3-z-label" transform="translate(159.0,13.5) translate(0.0,-0.0)">
    <g id="09-2-3-3-__g-4">
      <svg xmlns:xlink="http://www.w3.org/1999/xlink" style="vertical-align: -0.200px" width="8.456px" height="8.200px" role="img" focusable="false" viewBox="0 -442 467 453" x="0.0" y="0.0">
        <defs>
          <path id="09-2-3-3-MJX-6-NCM-I-1D467" d="M162 92L145 90C193 137 230 171 255 194L351 283C374 304 398 330 421 359C452 397 467 420 467 428C467 437 462 442 452 442C445 442 439 438 434 429C409 388 386 368 364 368C342 368 326 386 317 398C293 427 269 442 246 442C220 442 193 430 165 404C137 378 123 352 123 326C123 316 128 311 139 311C146 311 152 316 156 325C167 354 194 368 235 368C249 368 269 363 296 354C320 345 343 340 364 339C308 284 265 244 234 217L145 134C130 119 111 99 90 74C59 35 43 12 43 3C43-6 48-11 59-11C65-11 71-6 78 4C103 43 130 63 158 63C174 63 192 51 212 26C232 1 255-11 278-11C312-11 346 7 382 42C418 77 436 111 436 144C436 153 431 158 420 158C413 158 407 153 402 143C387 100 344 63 288 63C264 63 186 92 162 92Z"/>
        </defs>
        <g stroke="currentColor" fill="currentColor" stroke-width="0" transform="scale(1,-1)">
          <g data-mml-node="math">
            <g data-mml-node="mi" data-semantic-type="identifier" data-semantic-role="latinletter" data-semantic-font="italic" data-semantic-annotation="clearspeak:simple;nemeth:number;depth:1" data-semantic-id="0" data-semantic-attributes="latex:                                         z                                     " data-semantic-speech="z">
              <use data-c="1D467" xlink:href="#09-2-3-3-MJX-6-NCM-I-1D467"/>
            </g>
          </g>
        </g>
      </svg>
    </g>
  </g>
  <path id="09-2-3-3-__path-0" d="M 5.0 245.0 L 305.0 245.0 L 305.0 5.0 L 5.0 5.0 Z" stroke="black" stroke-width="2" fill="none"/>
</svg>
