<svg xmlns="http://www.w3.org/2000/svg" id="09-2-3-4-figure" width="310" height="250" viewBox="0 0 310 250">
  <defs>
    <clipPath id="09-2-3-4-__clipPath-0">
      <rect x="5.0" y="5.0" width="300.0" height="240.0"/>
    </clipPath>
    <marker id="09-2-3-4-arrow-head-end-3_None_24_60-blue" markerWidth="13.5" markerHeight="12.0" markerUnits="userSpaceOnUse" orient="auto" refX="9.8" refY="6.0">
      <path d="M 13.5 6.0L 0.0 12.0L 2.6 7.5L 2.6 4.5L 0.0 0.0Z" fill="blue" stroke="none"/>
    </marker>
    <marker id="09-2-3-4-arrow-head-end-3_None_24_60-blue-outline" markerWidth="17.5" markerHeight="16.0" markerUnits="userSpaceOnUse" orient="auto" refX="11.8" refY="8.0">
      <path d="M 16.3 9.8 L 2.8 15.8 A 2 2 0 0 1 0.0 14.0 L 0.0 2.0 A 2 2 0 0 1 2.8 0.2 L 16.3 6.2 A 2 2 0 0 1 16.3 9.8 Z" fill="white" stroke="none"/>
    </marker>
    <marker id="09-2-3-4-arrow-head-start-3_None_24_60-blue" markerWidth="13.5" markerHeight="12.0" markerUnits="userSpaceOnUse" orient="auto" refX="3.6999999999999993" refY="6.0">
      <g transform="rotate(180, 6.75, 6.0)">
        <path d="M 13.5 6.0L 0.0 12.0L 2.6 7.5L 2.6 4.5L 0.0 0.0Z" fill="blue" stroke="none"/>
      </g>
    </marker>
    <marker id="09-2-3-4-arrow-head-start-3_None_24_60-blue-outline" markerWidth="17.5" markerHeight="16.0" markerUnits="userSpaceOnUse" orient="auto" refX="5.699999999999999" refY="8.0">
      <g transform="rotate(180, 8.75, 8.0)">
        <path d="M 16.3 9.8 L 2.8 15.8 A 2 2 0 0 1 0.0 14.0 L 0.0 2.0 A 2 2 0 0 1 2.8 0.2 L 16.3 6.2 A 2 2 0 0 1 16.3 9.8 Z" fill="white" stroke="none"/>
      </g>
    </marker>
  </defs>
  <path id="09-2-3-4-axes" d="M 145.0 140.0 L 145.0 14.0 M 145.0 140.0 L 50.5 234.5 M 145.0 140.0 L 279.4 140.0" stroke="black" stroke-width="2" fill="none" clip-path="url(#09-2-3-4-__clipPath-0)"/>
  <line id="09-2-3-4-line" x1="-65.0" y1="182.0" x2="376.0" y2="93.8" stroke="#808080" stroke-width="2" fill="none"/>
  <g id="09-2-3-4-v">
    <g id="09-2-3-4-v" transform="translate(244.0,113.0) translate(-11.0,-8.1)">
      <g id="09-2-3-4-__g-0">
        <svg xmlns:xlink="http://www.w3.org/1999/xlink" style="vertical-align: -0.072px" width="10.984px" height="8.112px" role="img" focusable="false" viewBox="0 -444 607 448" x="0.0" y="0.0">
          <defs>
            <path id="09-2-3-4-MJX-2-NCM-B-1D42F" d="M580 397L580 444C555 442 526 441 501 441L410 444L410 397C429 397 458 394 458 386C458 386 458 384 453 374L337 124L210 397L264 397L264 444L140 441L26 444L26 397L90 397L265 21C277-4 290-4 303-4C320-4 330-1 340 20L506 376C512 390 516 397 580 397Z"/>
          </defs>
          <g stroke="currentColor" fill="currentColor" stroke-width="0" transform="scale(1,-1)">
            <g data-mml-node="math">
              <g data-mml-node="TeXAtom" data-mjx-texclass="ORD">
                <g data-mml-node="TeXAtom" data-mjx-texclass="ORD">
                  <g data-mml-node="mi" data-semantic-type="identifier" data-semantic-role="latinletter" data-semantic-font="bold" data-semantic-annotation="clearspeak:simple;nemeth:number;depth:1" data-semantic-id="0" data-semantic-attributes="latex:                                         \vvec                                     ;texclass:ORD" data-semantic-speech="bold v">
                    <use data-c="1D42F" xlink:href="#09-2-3-4-MJX-2-NCM-B-1D42F"/>
                  </g>
                </g>
              </g>
            </g>
          </g>
        </svg>
      </g>
    </g>
    <path stroke="blue" stroke-width="3" fill="none" marker-end="url(#09-2-3-4-arrow-head-end-3_None_24_60-blue)" d="M 145.0 140.0 L 246.4 119.7"/>
  </g>
  <g id="09-2-3-4-__label-0" transform="translate(46.5,230.5) translate(-10.4,-8.2)">
    <g id="09-2-3-4-__g-1">
      <svg xmlns:xlink="http://www.w3.org/1999/xlink" style="vertical-align: -0.200px" width="10.352px" height="8.200px" role="img" focusable="false" viewBox="0 -442 572 453" x="0.0" y="0.0">
        <defs>
          <path id="09-2-3-4-MJX-3-NCM-I-1D465" d="M527 373C527 419 482 442 432 442C389 442 355 419 329 373C308 419 273 442 222 442C173 442 133 419 101 374C74 335 60 306 60 287C60 278 65 273 75 273C84 273 90 278 92 287C111 345 153 413 220 413C253 413 269 392 269 351C269 330 251 252 216 118C199 51 169 18 126 18C112 18 99 21 88 26C114 36 127 54 127 80C127 106 114 119 87 119C54 119 29 91 29 58C29 12 76-11 125-11C167-11 201 12 228 58C247 12 283-11 335-11C383-11 423 12 455 57C482 96 496 125 496 144C496 153 491 158 481 158C472 158 467 153 464 144C447 87 402 18 337 18C304 18 287 38 287 79C287 92 292 120 303 165L337 300C356 375 387 413 431 413C445 413 458 410 469 405C442 396 429 378 429 351C429 325 443 312 470 312C502 312 527 341 527 373Z"/>
        </defs>
        <g stroke="currentColor" fill="currentColor" stroke-width="0" transform="scale(1,-1)">
          <g data-mml-node="math">
            <g data-mml-node="mi" data-semantic-type="identifier" data-semantic-role="latinletter" data-semantic-font="italic" data-semantic-annotation="clearspeak:simple;nemeth:number;depth:1" data-semantic-id="0" data-semantic-attributes="latex:                                         x                                     " data-semantic-speech="x">
              <use data-c="1D465" xlink:href="#09-2-3-4-MJX-3-NCM-I-1D465"/>
            </g>
          </g>
        </g>
      </svg>
    </g>
  </g>
  <g id="09-2-3-4-__label-1" transform="translate(283.4,140.0) translate(0.0,-5.9)">
    <g id="09-2-3-4-__g-2">
      <svg xmlns:xlink="http://www.w3.org/1999/xlink" style="vertical-align: -3.712px" width="8.872px" height="11.712px" role="img" focusable="false" viewBox="0 -442 490 647" x="0.0" y="0.0">
        <defs>
          <path id="09-2-3-4-MJX-4-NCM-I-1D466" d="M163 442C118 442 83 417 58 367C39 328 29 301 29 286C29 277 34 272 45 272C59 272 60 278 64 293C87 372 119 412 160 412C173 412 180 403 180 385C180 369 175 346 164 317C126 214 107 145 107 108C107 32 154-13 231-13C264-13 295-1 323 23C288-109 233-175 158-175C124-175 101-164 89-142C129-140 149-121 149-85C149-60 136-47 109-47C72-47 50-78 50-115C50-170 100-205 158-205C273-205 367-99 392-1L486 377C489 388 490 396 490 401C490 421 479 431 458 431C442 431 429 423 420 408C414 387 409 369 406 354L342 97C332 61 279 16 234 16C196 16 177 41 177 92C177 134 194 198 227 284C240 319 247 343 247 357C247 406 212 442 163 442Z"/>
        </defs>
        <g stroke="currentColor" fill="currentColor" stroke-width="0" transform="scale(1,-1)">
          <g data-mml-node="math">
            <g data-mml-node="mi" data-semantic-type="identifier" data-semantic-role="latinletter" data-semantic-font="italic" data-semantic-annotation="clearspeak:simple;nemeth:number;depth:1" data-semantic-id="0" data-semantic-attributes="latex:                                         y                                     " data-semantic-speech="y">
              <use data-c="1D466" xlink:href="#09-2-3-4-MJX-4-NCM-I-1D466"/>
            </g>
          </g>
        </g>
      </svg>
    </g>
  </g>
  <g id="09-2-3-4-__label-2" transform="translate(149.0,18.0) translate(0.0,-0.0)">
    <g id="09-2-3-4-__g-3">
      <svg xmlns:xlink="http://www.w3.org/1999/xlink" style="vertical-align: -0.200px" width="8.456px" height="8.200px" role="img" focusable="false" viewBox="0 -442 467 453" x="0.0" y="0.0">
        <defs>
          <path id="09-2-3-4-MJX-5-NCM-I-1D467" d="M162 92L145 90C193 137 230 171 255 194L351 283C374 304 398 330 421 359C452 397 467 420 467 428C467 437 462 442 452 442C445 442 439 438 434 429C409 388 386 368 364 368C342 368 326 386 317 398C293 427 269 442 246 442C220 442 193 430 165 404C137 378 123 352 123 326C123 316 128 311 139 311C146 311 152 316 156 325C167 354 194 368 235 368C249 368 269 363 296 354C320 345 343 340 364 339C308 284 265 244 234 217L145 134C130 119 111 99 90 74C59 35 43 12 43 3C43-6 48-11 59-11C65-11 71-6 78 4C103 43 130 63 158 63C174 63 192 51 212 26C232 1 255-11 278-11C312-11 346 7 382 42C418 77 436 111 436 144C436 153 431 158 420 158C413 158 407 153 402 143C387 100 344 63 288 63C264 63 186 92 162 92Z"/>
        </defs>
        <g stroke="currentColor" fill="currentColor" stroke-width="0" transform="scale(1,-1)">
          <g data-mml-node="math">
            <g data-mml-node="mi" data-semantic-type="identifier" data-semantic-role="latinletter" data-semantic-font="italic" data-semantic-annotation="clearspeak:simple;nemeth:number;depth:1" data-semantic-id="0" data-semantic-attributes="latex:                                         z                                     " data-semantic-speech="z">
              <use data-c="1D467" xlink:href="#09-2-3-4-MJX-5-NCM-I-1D467"/>
            </g>
          </g>
        </g>
      </svg>
    </g>
  </g>
</svg>
